<svg width="379" height="341" viewBox="0 0 379 341" fill="none" xmlns="http://www.w3.org/2000/svg">
<path d="M188.8 316.68C261.641 316.68 320.69 257.631 320.69 184.79C320.69 111.949 261.641 52.9 188.8 52.9C115.959 52.9 56.9099 111.949 56.9099 184.79C56.9099 257.631 115.959 316.68 188.8 316.68Z" fill="url(#paint0_linear)"/>
<path d="M189.78 296.18L188.85 295.65C185.04 293.48 182.79 289.91 181.61 285.56C176.61 282.52 173.92 277.98 173.62 272.05C172.93 258.21 185.67 240.72 188.41 237.86C186.05 232.32 181.6 221.72 179.23 215.98L174.72 217.46L174.28 214.01L165.62 216L165.22 212.01L154.52 212.22L154.49 208.16C151.36 208.19 144.16 207.14 143.82 207.1L143.32 207.03L143.07 203.51L129.95 203.71L130.12 202.94C130.27 202.25 130.43 201.45 130.51 200.9C123.62 202.73 115.15 201.09 114.78 201.01L114.13 200.88L114.91 197.88C107.86 200.39 93.06 198.78 92.39 198.71L91.09 198.56L92.02 197.64C93.34 196.34 94.74 194.91 95.6 194C76.96 194.27 72.59 191.38 72.41 191.25L71.79 190.82L72.33 190.29C73.27 189.38 74.31 188.32 74.93 187.62C56.43 186.55 51.12 182.01 50.9 181.82L50.24 181.23L51.02 180.81C52.77 179.86 54.72 178.66 55.61 177.94C39.89 175.73 32.55 167.62 32.24 167.27L31.69 166.65L32.43 166.29C34.36 165.36 36.43 164.32 37.67 163.65C26.07 160.3 19.76 151.08 19.48 150.67L19.03 150L24.01 148.23C9.38001 141.25 5.50997 128.64 5.46997 128.51L5.23999 127.72L6.06 127.71C8.23 127.67 10.74 127.51 11.91 127.28C3.13997 119.43 0.34998 108.63 0.22998 108.16L0.0100098 107.29L0.900024 107.39C1.45002 107.45 56.23 113.53 86.8 110.72C95.54 111.47 104.72 113.33 104.81 113.34C111.79 116.13 122.31 120.31 123.09 120.47C123.26 120.51 123.58 120.63 124.57 121.03C150.84 131.53 164.86 130.67 172 128.1C186.64 120.08 184.25 99.29 182.15 80.93C180.25 64.36 178.62 50.05 188.96 46.78L189.77 46.52V236.78L190.09 236.55L189.77 238.06V296.18H189.78ZM188.54 242.56C188.44 242.88 188.34 243.21 188.24 243.55C184.44 256.1 175.65 285.11 188.54 293.98V242.56ZM187.83 240.57C183.79 245.91 174.15 260.5 174.89 272.23C175.2 277.16 177.32 281.04 181.2 283.79C178.64 270.93 184.2 252.56 187.04 243.19C187.33 242.23 187.6 241.35 187.83 240.57ZM179.95 214.43L180.17 214.97C182.18 219.84 185.98 228.92 188.53 234.95V48.27C180.08 51.77 181.62 65.25 183.4 80.79C185.55 99.53 187.98 120.77 172.52 129.23C165.09 131.91 150.75 132.83 124.11 122.18C123.48 121.93 122.94 121.71 122.83 121.68C121.71 121.44 106.23 115.23 104.47 114.52C104.42 114.52 95.34 112.69 86.82 111.95C58.44 114.57 9.10002 109.51 1.71002 108.72C2.59002 111.53 5.87002 120.51 13.4 126.9L13.52 127L13.58 127.14C13.68 127.38 13.65 127.64 13.5 127.86C13.35 128.09 12.89 128.78 6.96997 128.93C8.09997 131.83 12.89 142.09 25.95 147.72L27.41 148.35L21.02 150.62C22.76 152.87 29.14 160.31 39.26 162.77H39.68L39.83 163.27C39.96 163.83 40 164 33.78 167.02C35.84 168.97 43.31 175.14 56.64 176.8L56.81 176.85C57.11 176.98 57.3 177.24 57.32 177.56C57.33 177.87 57.37 178.68 52.52 181.41C54.58 182.65 61.11 185.7 76.1 186.44L76.36 186.51L76.64 186.66L76.7 187.01C76.74 187.31 76.79 187.67 73.85 190.57C75.73 191.32 81.77 193.06 96.94 192.74L97.39 192.73L97.55 193.17C97.7 193.6 97.74 193.72 93.85 197.6C97.95 197.96 110.5 198.82 115.56 196.26L116.79 195.64L115.68 199.9C117.89 200.26 125.29 201.25 130.95 199.47L131.14 199.44H131.44L131.65 199.69C131.81 199.89 131.98 200.11 131.5 202.44L144.23 202.25L144.5 205.94C146.38 206.2 153.02 207.09 155.05 206.9L155.73 206.83L155.76 210.95L166.34 210.74L166.72 214.47L175.35 212.49L175.77 215.81L179.95 214.43Z" fill="#010303"/>
<path d="M13.0299 128L12.95 126.75C13.37 126.72 55.2599 123.93 86.1599 116.07L86.3099 116.05C86.5399 116.05 87.49 115.73 88.4 115.43C91.92 114.25 98.4799 112.05 104.3 113.23L104.05 114.45C98.5499 113.33 92.2099 115.46 88.7999 116.61C87.4799 117.05 86.82 117.27 86.4 117.3C55.4 125.18 13.4599 127.98 13.0299 128Z" fill="#010303"/>
<path d="M179 215.38C177.6 210.6 173.78 186.52 173.23 183.02C142.83 173.78 123.75 144.54 123.56 144.24C123.46 144.11 111.55 127.94 106.5 123.89C94.0499 119.45 26.6199 148.58 25.9399 148.87L25.4399 147.72C28.2499 146.5 94.3499 117.95 107.03 122.75L107.2 122.84C112.33 126.89 124.09 142.85 124.59 143.52C124.8 143.84 143.79 172.94 173.96 181.92L174.34 182.03L174.4 182.42C174.44 182.7 178.74 210.03 180.19 215.01L179 215.38Z" fill="#010303"/>
<path d="M39.53 163.92L38.8301 162.89C41.1901 161.29 96.8501 123.85 113.33 129.36L112.94 130.54C97.0301 125.21 40.1 163.53 39.53 163.92Z" fill="#010303"/>
<path d="M56.9698 177.9L56.1499 176.96C58.2199 175.15 106.96 132.59 119.11 136.51L118.72 137.7C107.26 133.98 57.4798 177.46 56.9698 177.9Z" fill="#010303"/>
<path d="M76.54 187.45L75.5801 186.65C77.0401 184.91 111.36 144.24 124.5 144.24C124.59 144.24 124.67 144.24 124.76 144.24L124.71 145.49C124.63 145.49 124.56 145.49 124.48 145.49C111.94 145.49 76.89 187.03 76.54 187.45Z" fill="#010303"/>
<path d="M97.4799 193.69L96.4299 193.01C97.3399 191.59 118.94 158.11 131.17 152.81L131.67 153.96C119.78 159.11 97.6999 193.35 97.4799 193.69Z" fill="#010303"/>
<path d="M116.4 197.09L115.29 196.52C115.98 195.17 132.42 163.52 141.16 162.78L141.26 164.02C134.57 164.58 121.04 188.08 116.4 197.09Z" fill="#010303"/>
<path d="M131.7 200.34L130.59 199.76C137.94 185.69 147.1 168.95 149.3 169.33L149.1 170.56C149.19 170.58 149.25 170.55 149.25 170.55C147.6 171.22 138.98 186.4 131.7 200.34Z" fill="#010303"/>
<path d="M144.23 203.12L143.09 202.6C146.77 194.52 155.55 175.65 157.52 175.01C157.73 174.94 157.96 174.96 158.15 175.06L157.54 176.15C157.72 176.25 157.9 176.21 157.96 176.18C156.64 176.99 149.9 190.67 144.23 203.12Z" fill="#010303"/>
<path d="M155.73 207.62L154.51 207.37C154.7 206.45 159.12 184.8 164.83 179.04L165.71 179.92C160.27 185.42 155.78 207.4 155.73 207.62Z" fill="#010303"/>
<path d="M175.628 197.516L174.221 213.123L175.466 213.235L176.873 197.628L175.628 197.516Z" fill="#010303"/>
<path d="M172.82 164.47C147.45 156.6 120.44 134.26 107.03 122.09C107.25 122.53 107.39 122.92 107.43 123.26L106.19 123.42C106.01 122.02 103 118.55 100.34 115.82C99.16 114.67 98.5 114.01 98.45 113.96L99.33 113.07C99.56 113.29 100.3 114 101.25 114.96C109.43 122.91 142.55 153.78 173.19 163.28L172.82 164.47Z" fill="#010303"/>
<path d="M173.73 147.03C143.02 144.56 98.99 114.34 98.55 114.04L99.2601 113.01C99.7001 113.31 143.45 143.34 173.83 145.79L173.73 147.03Z" fill="#010303"/>
<path d="M166.39 211.52L165.18 211.21C165.23 211.01 170.21 191.38 169.57 181.4L169.55 181.06L169.83 180.85C170.17 180.6 170.37 180.67 172.24 181.38C172.49 181.47 172.79 181.59 173.07 181.69C169.18 140.97 178.94 121.95 179.04 121.77L180.14 122.35C180.04 122.54 170.31 141.55 174.4 182.48L174.44 182.82L174.16 183.04C173.82 183.3 173.67 183.25 171.8 182.54C171.52 182.44 171.17 182.3 170.86 182.19C171.2 192.55 166.59 210.73 166.39 211.52Z" fill="#010303"/>
<path d="M186.86 48.11L185.61 48.03L188.54 0.039978L189.78 0.0699463V47.3799H188.54V20.56L186.86 48.11Z" fill="#010303"/>
<path d="M189.11 296.14V238.03L188.79 236.52L189.11 236.75V46.49L189.92 46.75C200.26 50.02 198.62 64.33 196.73 80.9C194.63 99.25 192.25 120.05 206.97 128.11C214.02 130.64 228.04 131.5 254.31 121C255.3 120.6 255.62 120.48 255.79 120.44C256.57 120.27 267.09 116.1 273.96 113.34C274.16 113.29 283.34 111.43 291.97 110.68C322.64 113.49 377.43 107.41 377.98 107.35L378.87 107.25L378.65 108.12C378.53 108.59 375.74 119.39 366.97 127.24C368.15 127.47 370.65 127.63 372.82 127.67L373.64 127.68L373.41 128.47C373.37 128.6 369.49 141.21 354.86 148.19L359.85 149.96L359.4 150.63C359.13 151.03 352.81 160.25 341.21 163.61C342.44 164.27 344.52 165.31 346.45 166.25L347.19 166.61L346.64 167.23C346.33 167.58 338.99 175.69 323.27 177.9C324.16 178.62 326.11 179.82 327.86 180.77L328.64 181.19L327.98 181.78C327.76 181.98 322.45 186.51 303.95 187.58C304.57 188.28 305.61 189.34 306.55 190.25L307.09 190.78L306.47 191.21C306.29 191.34 301.94 194.23 283.28 193.96C284.14 194.87 285.54 196.29 286.85 197.59L287.78 198.51L286.48 198.66C285.82 198.73 271.01 200.34 263.96 197.83L264.74 200.83L264.09 200.96C263.72 201.03 255.25 202.68 248.36 200.85C248.44 201.41 248.6 202.2 248.75 202.89L248.92 203.66L235.8 203.46L235.55 206.98L235.05 207.05C234.72 207.1 227.46 208.08 224.38 208.11L224.35 212.17L213.65 211.96L213.25 215.95L204.59 213.96L204.15 217.41L199.64 215.93C197.28 221.66 192.83 232.27 190.46 237.81C193.2 240.68 205.95 258.16 205.25 272C204.95 277.93 202.27 282.47 197.26 285.51C196.08 289.86 193.83 293.43 190.02 295.6L189.11 296.14ZM190.36 242.52V293.94C203.25 285.07 194.46 256.06 190.66 243.51C190.56 243.17 190.46 242.84 190.36 242.52ZM191.07 240.54C191.3 241.32 191.56 242.19 191.85 243.15C194.69 252.53 200.26 270.9 197.69 283.76C201.57 281.02 203.7 277.13 204.01 272.2C204.75 260.47 195.12 245.88 191.07 240.54ZM190.36 48.24V234.91C192.92 228.88 196.72 219.8 198.72 214.93L198.94 214.39L203.12 215.76L203.54 212.44L212.17 214.42L212.55 210.69L223.13 210.9L223.16 206.78L223.84 206.85C225.86 207.05 232.51 206.15 234.39 205.89L234.66 202.2L247.39 202.39C246.91 200.05 247.08 199.84 247.24 199.64L247.43 199.41L247.85 199.4L247.94 199.43C253.61 201.21 261 200.22 263.21 199.86L262.1 195.6L263.33 196.22C268.39 198.78 280.94 197.92 285.04 197.56C281.15 193.68 281.19 193.56 281.34 193.13L281.47 192.76L281.87 192.71C297.11 193.04 303.15 191.29 305.05 190.54C302.1 187.64 302.16 187.27 302.2 186.98L302.24 186.66L302.67 186.41L302.81 186.4C317.8 185.67 324.32 182.61 326.39 181.37C321.54 178.64 321.57 177.84 321.59 177.52C321.6 177.21 321.79 176.94 322.1 176.81L322.27 176.76C335.63 175.1 343.08 168.93 345.13 166.98C338.91 163.96 338.95 163.79 339.07 163.23L339.18 162.75L339.64 162.74C349.78 160.28 356.15 152.85 357.89 150.59L351.5 148.32L352.96 147.69C366.02 142.06 370.81 131.8 371.94 128.9C366.01 128.74 365.56 128.06 365.41 127.83C365.27 127.61 365.24 127.35 365.34 127.11L365.4 126.97L365.52 126.87C373.06 120.48 376.33 111.5 377.21 108.69C369.83 109.48 320.47 114.54 291.99 111.92C283.55 112.66 274.43 114.51 274.34 114.52C272.69 115.2 257.21 121.41 256.07 121.65C255.97 121.68 255.42 121.89 254.8 122.15C228.16 132.79 213.82 131.88 206.48 129.24C190.93 120.74 193.36 99.4999 195.51 80.7599C197.27 65.2199 198.81 51.73 190.36 48.24Z" fill="#010303"/>
<path d="M365.86 127.97C365.44 127.94 323.49 125.14 292.49 117.27C292.07 117.24 291.42 117.03 290.09 116.58C286.68 115.44 280.32 113.31 274.84 114.42L274.59 113.2C280.41 112.01 286.97 114.22 290.49 115.4C291.4 115.71 292.35 116.02 292.58 116.02L292.73 116.04C323.63 123.9 365.52 126.69 365.94 126.72L365.86 127.97Z" fill="#010303"/>
<path d="M199.9 215.35L198.7 215C200.16 210.02 204.45 182.69 204.49 182.41L204.55 182.02L204.93 181.91C235.1 172.93 254.09 143.83 254.28 143.54C254.8 142.83 266.56 126.87 271.69 122.82L271.86 122.73C284.55 117.95 350.64 146.49 353.45 147.7L352.95 148.85C352.27 148.56 284.85 119.44 272.39 123.87C267.34 127.92 255.43 144.09 255.31 144.25C255.14 144.51 236.07 173.76 205.67 183C205.12 186.49 201.3 210.56 199.9 215.35Z" fill="#010303"/>
<path d="M339.37 163.88C338.8 163.49 281.87 125.16 265.97 130.5L265.58 129.32C282.08 123.81 337.72 161.25 340.08 162.85L339.37 163.88Z" fill="#010303"/>
<path d="M321.93 177.86C321.43 177.42 271.66 133.95 260.18 137.66L259.79 136.47C271.93 132.54 320.68 175.1 322.75 176.92L321.93 177.86Z" fill="#010303"/>
<path d="M302.36 187.42C302.01 187 266.96 145.46 254.42 145.46C254.34 145.46 254.27 145.46 254.19 145.46L254.14 144.21C254.22 144.21 254.31 144.21 254.4 144.21C267.55 144.21 301.86 184.88 303.32 186.62L302.36 187.42Z" fill="#010303"/>
<path d="M281.42 193.66C281.2 193.31 259.12 159.08 247.23 153.93L247.73 152.78C259.97 158.08 281.56 191.55 282.47 192.98L281.42 193.66Z" fill="#010303"/>
<path d="M262.5 197.05C257.85 188.04 244.32 164.54 237.63 163.98L237.73 162.74C246.48 163.47 262.91 195.13 263.6 196.48L262.5 197.05Z" fill="#010303"/>
<path d="M247.2 200.3C239.92 186.36 231.29 171.18 229.65 170.51C229.65 170.51 229.71 170.53 229.8 170.52L229.6 169.29C231.76 168.94 240.96 185.65 248.31 199.72L247.2 200.3Z" fill="#010303"/>
<path d="M234.67 203.09C229 190.63 222.26 176.96 220.95 176.15C221.01 176.19 221.19 176.23 221.37 176.12L220.76 175.03C220.95 174.92 221.17 174.9 221.39 174.98C223.36 175.62 232.14 194.49 235.82 202.57L234.67 203.09Z" fill="#010303"/>
<path d="M223.17 207.59C223.12 207.37 218.63 185.39 213.19 179.9L214.07 179.02C219.78 184.77 224.21 206.43 224.39 207.35L223.17 207.59Z" fill="#010303"/>
<path d="M203.325 197.546L202.08 197.659L203.503 213.265L204.748 213.152L203.325 197.546Z" fill="#010303"/>
<path d="M206.08 164.43L205.71 163.24C236.35 153.74 269.47 122.88 277.65 114.93C278.6 113.96 279.34 113.25 279.57 113.03L280.45 113.92C280.4 113.97 279.75 114.64 278.56 115.78C275.9 118.51 272.89 121.98 272.71 123.38L271.47 123.22C271.51 122.88 271.65 122.49 271.87 122.05C258.46 134.23 231.45 156.57 206.08 164.43Z" fill="#010303"/>
<path d="M205.17 146.99L205.07 145.75C235.45 143.3 279.21 113.27 279.64 112.97L280.35 114C279.91 114.3 235.88 144.52 205.17 146.99Z" fill="#010303"/>
<path d="M212.51 211.48C212.31 210.69 207.7 192.52 208.04 182.16C207.73 182.27 207.38 182.4 207.1 182.51C205.23 183.21 205.08 183.27 204.74 183.01L204.46 182.8L204.49 182.45C208.58 141.52 198.85 122.5 198.75 122.32L199.85 121.74C199.95 121.93 209.72 140.94 205.82 181.66C206.1 181.56 206.41 181.44 206.65 181.35C208.52 180.65 208.72 180.57 209.06 180.83L209.33 181.03L209.31 181.38C208.67 191.36 213.65 210.99 213.7 211.19L212.51 211.48Z" fill="#010303"/>
<path d="M192.04 48.0699L190.36 20.52V47.35H189.11V0.039978L190.36 0L193.29 48L192.04 48.0699Z" fill="#010303"/>
<path d="M189.45 340.16C104.4 340.16 35.2 270.96 35.2 185.91C35.2 184.09 35.2299 182.27 35.2899 180.49L45.27 180.82C45.22 182.49 45.1899 184.2 45.1899 185.91C45.1899 265.46 109.9 330.18 189.45 330.18C269 330.18 333.72 265.46 333.72 185.91L333.71 183.81H343.69L343.7 185.91C343.7 270.96 274.5 340.16 189.45 340.16Z" fill="#010303"/>
<path d="M306.93 103.27C281.67 67.19 242.08 44.84 198.29 41.96L198.95 32C245.78 35.08 288.12 58.98 315.12 97.55L306.93 103.27Z" fill="#010303"/>
<path d="M71.9201 101.14L63.8501 95.27C90.8701 58.13 132.55 35.0699 178.2 32.0099L178.87 41.97C136.17 44.83 97.1901 66.4 71.9201 101.14Z" fill="#010303"/>
<defs>
<linearGradient id="paint0_linear" x1="56.9076" y1="184.794" x2="320.691" y2="184.794" gradientUnits="userSpaceOnUse">
<stop stop-color="#E5BF40"/>
<stop offset="0.1483" stop-color="#E5AE41"/>
<stop offset="0.4621" stop-color="#E48643"/>
<stop offset="0.9128" stop-color="#E65643"/>
<stop offset="1" stop-color="#E64C43"/>
</linearGradient>
</defs>
</svg>
